<?xml version="1.0" standalone="no"?><!DOCTYPE svg PUBLIC "-//W3C//DTD SVG 1.1//EN" "http://www.w3.org/Graphics/SVG/1.1/DTD/svg11.dtd"><svg t="1693210571545" class="icon" viewBox="0 0 1024 1024" version="1.1" xmlns="http://www.w3.org/2000/svg" p-id="7276" data-spm-anchor-id="a313x.search_index.0.i38.539d3a811lAGZE" xmlns:xlink="http://www.w3.org/1999/xlink" width="200" height="200"><path d="M285.082 879.411l-20.48-120.217-120.218-20.48 217.088-217.088L502.17 662.22 285.082 879.41z m0 0" fill="#FCCA4C" p-id="7277"></path><path d="M263.373 752.845l-113.767-19.456-5.222 5.325 120.218 20.48-1.23-6.35z m231.321-97.997L282.83 866.714l2.15 12.8 217.19-217.19-7.475-7.476z m0 0" fill="#FDDA82" p-id="7278"></path><path d="M737.178 879.411l20.48-120.217 120.115-20.48-217.088-217.088-140.698 140.697 217.19 217.088z m0 0" fill="#FCCA4C" p-id="7279" data-spm-anchor-id="a313x.search_index.0.i39.539d3a811lAGZE" class=""></path><path d="M357.069 527.053L254.157 629.965l11.161 28.262c7.885 19.866 23.143 35.635 42.804 44.135l108.134 46.899 81.408-81.408-140.595-140.8z m306.688-2.15l102.912 102.911-11.162 28.263c-7.885 19.865-23.142 35.635-42.803 44.134l-108.134 46.9-81.408-81.511 140.595-140.698z m0 0" fill="#F99403" p-id="7280"></path><path d="M639.078 648.192l-113.766 19.456-5.325-5.325 120.218-20.48-1.127 6.349z m225.997 92.774l-206.643-206.54 2.253-12.698 217.088 217.088-12.698 2.15z m0 0" fill="#FDDA82" p-id="7281"></path><path d="M810.189 427.008l-64.103-161.997c-7.884-19.865-23.142-35.635-42.803-44.134L543.54 151.552c-19.456-8.397-41.574-8.806-61.44-1.024L320.102 214.63c-19.865 7.885-35.635 23.143-44.134 42.804L206.746 417.28c-8.397 19.456-8.807 41.574-1.024 61.44l64.102 161.997c7.885 19.865 23.142 35.635 42.803 44.134l159.847 69.223c19.456 8.396 41.574 8.806 61.44 1.024l161.996-64.103c19.866-7.885 35.636-23.142 44.135-42.803l69.222-159.949c8.397-19.353 8.704-41.472 0.922-61.235z m0 0" fill="#B0E0E6" p-id="7282" data-spm-anchor-id="a313x.search_index.0.i36.539d3a811lAGZE" class="selected"></path><path d="M270.746 452.813c0 131.072 106.188 237.26 237.26 237.26s237.261-106.188 237.261-237.26-106.291-237.261-237.363-237.261-237.158 106.189-237.158 237.26z m0 0" fill="#E7F5FD" p-id="7283"></path><path d="M507.904 215.654c1.638 0 3.174 0 4.813 0.103-128.82 2.662-232.346 107.725-232.346 237.158 0 129.434 103.527 234.496 232.346 237.056-1.639 0-3.175 0.103-4.813 0.103-130.97 0-237.26-106.19-237.26-237.261s106.188-237.159 237.26-237.159z m0 0" fill="#BCDBF5" p-id="7284"></path><path d="M508.006 215.654c-1.638 0-3.174 0-4.812 0.103 128.716 2.56 232.345 107.725 232.345 237.056S631.91 687.41 503.091 689.97c1.639 0 3.175 0.103 4.813 0.103 130.97 0 237.26-106.19 237.26-237.261S638.977 215.654 508.007 215.654z m0 0" fill="#FAFDFF" p-id="7285"></path><path d="M298.394 452.813c0 115.712 93.798 209.51 209.51 209.51s209.51-93.798 209.51-209.51-93.798-209.51-209.51-209.51-209.51 93.798-209.51 209.51z m0 0" fill="#B0E0E6" p-id="7286" data-spm-anchor-id="a313x.search_index.0.i37.539d3a811lAGZE" class="selected"></path><path d="M590.848 570.778L509.85 529.92l-79.565 43.52v-10.854l13.721-78.746-65.945-62.157V410.83l89.497-3.687 38.708-82.022 41.574 80.589 89.907 0.614v10.957l-63.795 64.41 16.896 78.13v10.958z m0 0" fill="#3173E7" p-id="7287"></path><path d="M590.848 559.82l-80.998-40.754-79.565 43.622 13.721-89.6-65.945-62.157 89.497-14.54 38.708-82.023 41.574 80.589 89.907 11.469-63.795 64.41 16.896 88.985z m0 0" fill="#FFF9F0" p-id="7288"></path><path d="M506.266 314.163l28.262 87.245 75.162 11.264-43.418 56.525 24.678 90.521-16.896-89.088 63.796-64.41-90.01-11.366-41.574-80.69z m0 0" fill="#E7F5FD" p-id="7289"></path><path d="M713.114 247.706s34.406 50.176 53.555 91.545c19.251 41.37 30.72 94.823 33.587 105.677 2.867 10.854 17.408 2.15 11.469-13.312-5.94-15.462-61.543-155.853-61.543-155.853s-6.45-26.419-28.467-40.038c-12.595-8.192-8.601 11.98-8.601 11.98z m-191.59-82.637s46.489 12.083 82.943 25.293c36.557 13.21 76.39 37.99 84.685 42.803 8.397 4.71 11.06-9.011-1.946-14.643-13.004-5.632-131.584-56.116-131.584-56.116s-13.004-12.902-33.792-7.987c-11.878 2.56-0.307 10.65-0.307 10.65z m263.68 328.499s-13.108 42.906-28.263 79.667-43.213 73.933-48.538 81.818c-5.325 7.987 9.523 14.848 15.975 1.945 6.45-12.902 64.102-130.048 64.102-130.048s9.626-20.275 8.602-43.212c-0.717-14.439-11.879 9.83-11.879 9.83z m0 0" fill="#9ECEF5" p-id="7290"></path><path d="M757.658 759.296l-7.066 1.74-20.685 111.207 7.168 7.168 20.583-120.115z m0 0" fill="#FFFFFF" p-id="7291"></path></svg>