<?xml version="1.0" standalone="no"?><!DOCTYPE svg PUBLIC "-//W3C//DTD SVG 1.1//EN" "http://www.w3.org/Graphics/SVG/1.1/DTD/svg11.dtd"><svg t="1693212306959" class="icon" viewBox="0 0 1024 1024" version="1.1" xmlns="http://www.w3.org/2000/svg" p-id="1878" xmlns:xlink="http://www.w3.org/1999/xlink" width="200" height="200"><path d="M718.488 245.332S757.196 190.472 856 190.472c123.724 0 127 120.896 127 147 0 16.348-28.436 198.628-233.132 248.84a75 75 0 0 1-91.412-87.552l44-220a75.044 75.044 0 0 1 16.032-33.428zM776 293.472l-44 220c149.42-36.652 176-164.068 176-176 0-11.936 4.564-72-52-72s-80 28-80 28z" fill="#c0c0c0" p-id="1879"></path><path d="M864.012 265.904a105.628 105.628 0 0 1 28.976-71.24c87.424 21.536 90.012 119.608 90.012 142.808 0 3.888-1.608 17.164-6.816 35.82a105.52 105.52 0 0 1-70.704-21.736c1.82-7.156 2.52-12.144 2.52-14.084 0-11.34 4.12-66.132-43.988-71.568z" fill="#c0c0c0" p-id="1880"></path><path d="M305.512 245.332S266.804 190.472 168 190.472c-123.724 0-127 120.896-127 147 0 16.348 28.436 198.628 233.132 248.84a75 75 0 0 0 91.412-87.552l-44-220a75.044 75.044 0 0 0-16.032-33.428zM248 293.472l44 220c-149.42-36.652-176-164.068-176-176 0-11.936-4.564-72 52-72s80 28 80 28z" fill="#c0c0c0" p-id="1881"></path><path d="M245.692 203.96A188.92 188.92 0 0 1 248 233.472a187.88 187.88 0 0 1-7.628 53.148c-10.924-8.292-34.04-21.148-72.372-21.148-56.564 0-52 60.064-52 72 0 5.296 5.236 33.336 24.12 66.096a186.944 186.944 0 0 1-74.28 17.812c-20.012-42.248-24.84-77.172-24.84-83.908 0-26.104 3.276-147 127-147 31.936 0 57.592 5.732 77.692 13.488z" fill="#c0c0c0" p-id="1882"></path><path d="M512 626.356l64.824-3.1v96.132a109.392 109.392 0 0 0 109.392 109.392h5.224a28.396 28.396 0 0 1 25.62 16.148l18.168 37.996a25.128 25.128 0 0 1-22.676 35.98H311.448a25.128 25.128 0 0 1-22.676-35.98l18.168-37.996a28.396 28.396 0 0 1 25.62-16.148h5.224a109.392 109.392 0 0 0 109.392-109.392v-96.132l64.824 3.1z" fill="#c0c0c0" p-id="1883"></path><path d="M450.42 918.904H311.448a25.128 25.128 0 0 1-22.676-35.98l18.168-37.996a28.396 28.396 0 0 1 25.62-16.148h5.224c13.576 0 26.888-2.524 39.316-7.308h51.9a27.008 27.008 0 0 1 27 27v54c0 6.18-2.08 11.88-5.58 16.432z" fill="#c0c0c0" p-id="1884"></path><path d="M712.552 918.904h-135.748a24.816 24.816 0 0 1-24.804-24.804v-49.604a24.816 24.816 0 0 1 24.804-24.804h65.756a109.344 109.344 0 0 0 43.656 9.088h5.224a28.396 28.396 0 0 1 25.62 16.148l18.168 37.996a25.128 25.128 0 0 1-22.676 35.98z" fill="#c0c0c0" p-id="1885"></path><path d="M797.624 179.36S853.764 701.112 512 701.112 226.376 179.36 226.376 179.36h571.248z" fill="#c0c0c0" p-id="1886"></path><path d="M223.924 227.584c0.956-29.852 2.932-48.224 2.932-48.224h571.252s2.004 18.644 2.952 48.884H231.328c-2.524 0-5-0.224-7.404-0.66z" fill="#c0c0c0" p-id="1887"></path><path d="M850.4 146.668c0-22.944-18.628-41.572-41.572-41.572H215.172c-22.944 0-41.572 18.628-41.572 41.572 0 22.948 18.628 41.576 41.572 41.576h593.656c22.944 0 41.572-18.628 41.572-41.576z" fill="#c0c0c0" p-id="1888"></path><path d="M403.72 146.668c0-22.944-18.628-41.572-41.576-41.572H215.228c-22.948 0-41.576 18.628-41.576 41.572 0 22.948 18.628 41.576 41.576 41.576h146.916c22.948 0 41.576-18.628 41.576-41.576z" fill="#c0c0c0" p-id="1889"></path><path d="M850.452 146.668c0-22.944-18.628-41.572-41.572-41.572h-146.92c-22.948 0-41.576 18.628-41.576 41.572 0 22.948 18.628 41.576 41.576 41.576h146.92c22.944 0 41.572-18.628 41.572-41.576z" fill="#c0c0c0" p-id="1890"></path><path d="M283.488 295.96c1.796-22.928 21.868-40.08 44.792-38.284 22.928 1.796 40.08 21.868 38.284 44.796 0 0-13.1 148.916 65.5 238.492 15.168 17.284 13.448 43.632-3.836 58.8-17.288 15.168-43.636 13.448-58.8-3.836C270.26 482.916 283.488 295.96 283.488 295.96z" fill="#c0c0c0" p-id="1891"></path><path d="M729.1 295.96c-1.796-22.928-21.868-40.08-44.796-38.284-22.924 1.796-40.08 21.868-38.284 44.796 0 0 13.104 148.916-65.496 238.492-15.168 17.284-13.448 43.632 3.836 58.8s43.632 13.448 58.8-3.836c99.168-113.012 85.94-299.968 85.94-299.968z" fill="#c0c0c0" p-id="1892"></path></svg>